<svg width="30" height="30" viewBox="0 0 30 30" fill="none" xmlns="http://www.w3.org/2000/svg">
    <path fill-rule="evenodd" clip-rule="evenodd" d="M15.3 4.912a.5.5 0 0 0-.6 0l-8.75 6.563a.5.5 0 0 0-.2.4V23.75a.5.5 0 0 0 .5.5h4.25v-5.5a4.5 4.5 0 1 1 9 0v5.5h4.25a.5.5 0 0 0 .5-.5V11.875a.5.5 0 0 0-.2-.4L15.3 4.912zm9.95 4.963a2.5 2.5 0 0 1 1 2V23.75a2.5 2.5 0 0 1-2.5 2.5h-4.875c-.76 0-1.375-.616-1.375-1.375V18.75a2.5 2.5 0 1 0-5 0v6.125c0 .76-.616 1.375-1.375 1.375H6.25a2.5 2.5 0 0 1-2.5-2.5V11.875a2.5 2.5 0 0 1 1-2l8.75-6.563a2.5 2.5 0 0 1 3 0l8.75 6.563z" fill="#A7ACB1"/>
</svg>
