<svg width="30" height="30" viewBox="0 0 30 30" fill="none" xmlns="http://www.w3.org/2000/svg">
    <path fill-rule="evenodd" clip-rule="evenodd" d="M21 4.68H9A4.32 4.32 0 0 0 4.68 9v12A4.32 4.32 0 0 0 9 25.32h12A4.32 4.32 0 0 0 25.32 21V9A4.32 4.32 0 0 0 21 4.68zM9 3a6 6 0 0 0-6 6v12a6 6 0 0 0 6 6h12a6 6 0 0 0 6-6V9a6 6 0 0 0-6-6H9z" fill="#A7ACB1"/>
    <path fill-rule="evenodd" clip-rule="evenodd" d="M20.09 9.708c0-.514.001-.885.025-1.174.025-.296.067-.404.088-.44.005-.009.007-.01.01-.012a.309.309 0 0 1 .09-.041c.136-.044.372-.076.788-.076.417 0 .653.032.788.076a.31.31 0 0 1 .09.04c.003.002.006.004.011.013.02.036.063.144.088.44.023.29.024.66.024 1.174v9.441c0 .608-.033 1.02-.088 1.299-.055.28-.119.36-.13.371a.05.05 0 0 1-.018.014.43.43 0 0 1-.11.03c-.145.027-.334.029-.655.029-.325 0-.517-.002-.662-.028a.427.427 0 0 1-.11-.031.043.043 0 0 1-.016-.011c-.01-.01-.072-.09-.127-.371-.053-.28-.085-.693-.085-1.302V9.708zm1.001-3.28c-.84 0-1.704.093-2.157.876-.197.341-.263.735-.293 1.098-.03.363-.03.799-.03 1.278v9.47c0 .646.033 1.175.115 1.601.081.424.224.817.497 1.12.286.318.636.45.956.507.284.05.6.05.877.05h.07c.273 0 .587 0 .87-.05.32-.057.668-.189.955-.505.274-.302.42-.693.503-1.119.083-.427.117-.957.117-1.605V9.68c0-.478 0-.914-.03-1.277-.03-.363-.095-.757-.293-1.098-.452-.783-1.316-.875-2.157-.875zm-7.067 5.74a7.48 7.48 0 0 0-.022.754v6.651c-.022.777.114 1.04.195 1.13.07.078.246.189.803.189.544 0 .726-.11.8-.192.083-.091.222-.354.198-1.124v-6.654c0-.312-.001-.55-.023-.753-.021-.201-.058-.304-.09-.359v-.002c-.02-.035-.13-.227-.885-.227-.756 0-.865.192-.885.227l-.001.002c-.032.055-.068.158-.09.359zm-1.18-1.147c.418-.723 1.188-.977 2.156-.977.967 0 1.738.254 2.155.976.185.322.258.672.29.98.032.296.032.615.032.9v6.639c.026.882-.105 1.669-.6 2.215-.508.558-1.22.675-1.877.675-.663 0-1.379-.115-1.884-.678-.493-.548-.617-1.335-.593-2.21V12.9c0-.285 0-.604.031-.9.033-.308.105-.658.29-.98zm-4.913 5.685c-.022.239-.023.526-.023.912v2.5c0 .435.101.554.15.597.08.07.295.177.85.177.543 0 .762-.106.847-.18.052-.046.154-.167.154-.594v-2.487l-.006-.183c-.01-.297-.017-.53-.038-.735-.026-.247-.064-.361-.095-.418-.009-.019-.084-.194-.861-.194-.781 0-.872.177-.885.201v.002c-.03.053-.07.164-.093.402zm-1.183-1.18c.427-.755 1.225-.962 2.16-.962.938 0 1.729.209 2.147.97.18.329.247.691.28 1.014.028.267.038.57.047.868l.006.174v2.528c0 .672-.166 1.322-.683 1.772-.485.423-1.136.539-1.796.539-.667 0-1.321-.115-1.806-.541-.516-.453-.674-1.106-.674-1.77v-2.525c0-.354 0-.716.03-1.039.032-.33.102-.697.29-1.029z" fill="#A7ACB1"/>
</svg>
