<svg width="243" height="46" viewBox="0 0 243 46" fill="none" xmlns="http://www.w3.org/2000/svg">
    <path d="M36.267 24.214c-3.614.257-31.182.172-36.14 0-.169-1.456-.169-3.426 0-5.01 8.74-.172 32.19-.086 36.14 0 .169 1.498.169 3.34 0 5.01zm-34.25-6.68a32.564 32.564 0 0 1 0-4.969c1.052-.043 2.984-.043 5.337-.085V9.482c-2.142-.043-3.866-.043-4.917-.086a32.669 32.669 0 0 1 0-4.967c6.976-.13 27.653-.172 31.56 0 .084 1.584.084 3.083 0 4.967-1.092.043-2.857.043-4.958.086v2.998c2.353.042 4.244.042 5.379.085.126 1.67.126 2.998 0 4.968-5.42.172-27.442.172-32.4 0zm32.78 20.471c.168 1.412.084 3.383 0 4.754-2.732.214-26.98.257-32.36 0-.168-2.356-.251-6.724 0-10.664h25.047v-1.37H2.522c-.169-1.414-.169-3.812 0-4.797 12.229-.129 26.14-.129 31.308 0 .21 1.67.21 8.865 0 10.707H8.783v1.37h26.014zM13.532 12.48c3.026-.042 6.304-.042 9.33-.042V9.524h-9.33v2.956zM57.444 34.022c.167 1.628.167 4.111 0 5.739-2.606.128-14.919.17-17.903 0-.294-5.053-.252-15.162 0-20.087 2.858-.085 6.766-.043 9.078 0 0-2.398 0-6.51.041-8.65-7.69.085-1.218.085-8.95 0-.169-1.628-.169-4.113 0-5.74 2.605-.129 12.565-.171 15.002 0 .294 5.011.252 15.161 0 20.086-1.975.129-7.06.043-9.077 0 0 2.399 0 6.51-.042 8.652 2.353-.086 10.001-.086 11.85 0zM65.806 4.3c.126 5.397.042 32.85 0 37.947-1.135.128-4.538.128-6.01 0-.083-2.442-.126-9.98-.126-17.732-1.386 0-2.647-.043-3.53-.085-.125-1.242-.125-4.925 0-5.91.841-.043 2.144-.043 3.573-.043 0-6.553.041-12.334.083-14.177 1.136-.257 4.75-.214 6.01 0zm8.321 38.331c-1.135.172-4.54.085-6.01 0-.083-5.182-.041-34.048 0-38.545 1.135-.257 4.75-.257 6.01 0 .084 5.354.084 33.363 0 38.545zM77.737 22.543C77.737 8.41 81.225 4.3 89.63 4.3c8.405 0 11.851 4.111 11.851 18.244 0 14.134-3.446 18.245-11.85 18.245-8.406 0-11.894-4.111-11.894-18.245zm17.315 0c0-9.935-1.177-12.248-5.422-12.248-4.244 0-5.463 2.313-5.463 12.248 0 9.937 1.219 12.25 5.463 12.25 4.245 0 5.422-2.313 5.422-12.25zM106.02 4.085c1.134-.257 4.832-.214 6.303 0 .169 5.867.169 33.449 0 38.545-1.302.171-4.832.128-6.303 0-.168-4.968-.126-33.577 0-38.545z" fill="#474747"/>
    <path d="M168.368 21.516a33.826 33.826 0 0 1 0-5.054c.924-.042 2.268-.042 3.782-.042 0-2.27 0-4.84.042-6.596l-3.489-.085a34.095 34.095 0 0 1 0-5.054c6.976-.128 20.466-.171 24.375 0 .084 1.585.084 3.17 0 5.054l-3.53.085c.042 1.756.042 4.283.042 6.553l3.824.086c.126 1.67.126 3.083 0 5.054-5.421.17-20.087.17-25.046 0zm35.3 21.243c-2.732.257-26.559.257-31.938 0-.169-2.356-.252-7.495 0-11.436h24.879v-1.84h-24.795c-.169-1.414-.169-3.898 0-4.884 12.229-.128 25.971-.128 31.141 0 .209 2.528.209 8.694 0 11.435h-24.879v1.842h25.592c.168 1.414.084 3.512 0 4.883zm-25.341-26.382c1.681-.043 3.404-.043 5.085-.043 0-2.227 0-4.71.042-6.466h-5.169c.042 1.755.042 4.24.042 6.509zm18.365 6.51c-.126-3.683-.126-15.547 0-18.802 1.135-.171 4.791-.213 6.262 0 .083 4.626.126 14.562 0 18.802-1.303.171-4.791.128-6.262 0zM206.732 36.034c8.741-.171 32.191-.085 36.142 0 .168 1.585.168 3.77 0 5.568-3.615.257-31.182.171-36.142 0-.168-1.542-.168-3.898 0-5.568zm2.311-30.407c4.076-.214 26.938-.128 31.141 0 .168 1.627.168 4.24 0 5.867-2.942.086-21.475.086-24.627 0-.042 1.97-.042 8.609 0 10.45 3.32 0 22.357-.043 25.467 0 .126 1.67.126 4.412 0 5.782-3.446.171-27.862.129-31.981 0-.252-5.011-.21-17.174 0-22.099zM163.837 23c0 12.702-10.105 23-22.569 23-12.465 0-22.569-10.297-22.569-23s10.104-23 22.569-23c12.464 0 22.569 10.297 22.569 23z" fill="#75C697"/>
    <path d="m154.311 24.475 3.857-7.533-4.66-7.408h-16.357L122.915 30.33l1.269 3.003h2.756l11.838-17.248a3.545 3.545 0 0 1 2.424-1.51l8.146-1.088a2.433 2.433 0 0 1 2.12.754c.565.598.809 1.412.669 2.233l-.212 1.241c-.161.946-.711 1.822-1.545 2.465-.786.605-1.771.952-2.704.952a4.01 4.01 0 0 1-.423-.023l-7.209-.788a.897.897 0 0 0-.835.395l-10.723 15.718.998 2.35 3.459-.006 4.031-5.801h12.276l1.767-2.655-1.928-2.612h-8.495l2.281-3.235h11.436z" fill="#fff"/>
</svg>
