<svg width="30" height="30" viewBox="0 0 30 30" fill="none" xmlns="http://www.w3.org/2000/svg">
    <path d="M7.991 26.276h14.621c2.017 0 2.991-.635 2.991-2.01 0-3.208-4.011-7.514-10.298-7.514C9.012 16.752 5 21.058 5 24.266c0 1.375.974 2.01 2.991 2.01zM7.61 24.25c-.275 0-.387-.084-.387-.303 0-1.795 2.903-5.172 8.084-5.172 5.17 0 8.075 3.377 8.075 5.172 0 .219-.102.303-.38.303H7.61zm7.697-8.866c2.833 0 5.127-2.503 5.127-5.569 0-3.025-2.293-5.427-5.127-5.427-2.814 0-5.13 2.44-5.126 5.448.011 3.054 2.294 5.548 5.126 5.548zm0-2.025c-1.62 0-3.001-1.526-3.003-3.527-.003-1.944 1.37-3.42 3.002-3.42 1.647 0 3.005 1.457 3.005 3.403 0 1.998-1.37 3.544-3.004 3.544z" fill="#A7ACB1"/>
</svg>
