<svg width="30" height="30" viewBox="0 0 30 30" fill="none" xmlns="http://www.w3.org/2000/svg">
    <path d="M9.713 26.339h10.973c1.78 0 2.713-.954 2.713-2.875v-8.3c0-1.906-.933-2.86-2.713-2.86H9.713c-1.782 0-2.713.954-2.713 2.86v8.3c0 1.92.93 2.875 2.713 2.875zm.332-2.1c-.487 0-.765-.298-.765-.851v-8.145c0-.555.278-.838.765-.838h10.31c.497 0 .762.283.762.838v8.145c0 .553-.265.85-.761.85h-10.31zm-.904-10.95h2.195l.002-3.943c0-2.752 1.76-4.247 3.857-4.247 2.092 0 3.878 1.495 3.878 4.247l-.005 3.943h2.187l.003-3.735C21.258 5.23 18.395 3 15.195 3c-3.192 0-6.051 2.23-6.051 6.554l-.003 3.735z" fill="#A7ACB1"/>
</svg>
